<mxfile host="app.diagrams.net" modified="2022-08-23T23:14:13.160Z" agent="5.0 (Windows NT 10.0; Win64; x64) AppleWebKit/537.36 (KHTML, like Gecko) Chrome/104.0.0.0 Safari/537.36" etag="VVR8oytnzs2XjLgxTYy3" version="20.2.6" type="github">
  <diagram id="9SLUQexJYew2HqXiu3gR" name="Página-1">
    <mxGraphModel dx="863" dy="482" grid="1" gridSize="10" guides="1" tooltips="1" connect="1" arrows="1" fold="1" page="1" pageScale="1" pageWidth="827" pageHeight="1169" math="0" shadow="0">
      <root>
        <mxCell id="0" />
        <mxCell id="1" parent="0" />
        <mxCell id="5SgOgQz0fHvNERm-txrx-1" value="Cliente" style="shape=umlActor;verticalLabelPosition=bottom;verticalAlign=top;html=1;outlineConnect=0;" vertex="1" parent="1">
          <mxGeometry x="90" y="190" width="30" height="60" as="geometry" />
        </mxCell>
        <mxCell id="5SgOgQz0fHvNERm-txrx-2" value="Funcionário" style="shape=umlActor;verticalLabelPosition=bottom;verticalAlign=top;html=1;outlineConnect=0;" vertex="1" parent="1">
          <mxGeometry x="740" y="190" width="30" height="60" as="geometry" />
        </mxCell>
        <mxCell id="5SgOgQz0fHvNERm-txrx-3" value="UC01&lt;br&gt;Cadastrar-se" style="ellipse;whiteSpace=wrap;html=1;" vertex="1" parent="1">
          <mxGeometry x="200" y="70" width="120" height="80" as="geometry" />
        </mxCell>
        <mxCell id="5SgOgQz0fHvNERm-txrx-4" value="UC02&lt;br&gt;Logar" style="ellipse;whiteSpace=wrap;html=1;" vertex="1" parent="1">
          <mxGeometry x="200" y="180" width="120" height="80" as="geometry" />
        </mxCell>
        <mxCell id="5SgOgQz0fHvNERm-txrx-5" value="UC03&lt;br&gt;Locar Carro" style="ellipse;whiteSpace=wrap;html=1;" vertex="1" parent="1">
          <mxGeometry x="200" y="290" width="120" height="80" as="geometry" />
        </mxCell>
        <mxCell id="5SgOgQz0fHvNERm-txrx-6" value="" style="endArrow=none;html=1;rounded=0;exitX=0.75;exitY=0.1;exitDx=0;exitDy=0;exitPerimeter=0;entryX=0.5;entryY=1;entryDx=0;entryDy=0;" edge="1" parent="1" source="5SgOgQz0fHvNERm-txrx-1" target="5SgOgQz0fHvNERm-txrx-3">
          <mxGeometry width="50" height="50" relative="1" as="geometry">
            <mxPoint x="150" y="130" as="sourcePoint" />
            <mxPoint x="200" y="80" as="targetPoint" />
          </mxGeometry>
        </mxCell>
        <mxCell id="5SgOgQz0fHvNERm-txrx-7" value="" style="endArrow=none;html=1;rounded=0;exitX=0.5;exitY=0.5;exitDx=0;exitDy=0;exitPerimeter=0;entryX=0;entryY=0.5;entryDx=0;entryDy=0;" edge="1" parent="1" source="5SgOgQz0fHvNERm-txrx-1" target="5SgOgQz0fHvNERm-txrx-4">
          <mxGeometry width="50" height="50" relative="1" as="geometry">
            <mxPoint x="150" y="230" as="sourcePoint" />
            <mxPoint x="200" y="180" as="targetPoint" />
          </mxGeometry>
        </mxCell>
        <mxCell id="5SgOgQz0fHvNERm-txrx-8" value="" style="endArrow=none;html=1;rounded=0;exitX=1;exitY=1;exitDx=0;exitDy=0;exitPerimeter=0;entryX=0.5;entryY=0;entryDx=0;entryDy=0;" edge="1" parent="1" source="5SgOgQz0fHvNERm-txrx-1" target="5SgOgQz0fHvNERm-txrx-5">
          <mxGeometry width="50" height="50" relative="1" as="geometry">
            <mxPoint x="150" y="330" as="sourcePoint" />
            <mxPoint x="200" y="280" as="targetPoint" />
          </mxGeometry>
        </mxCell>
        <mxCell id="5SgOgQz0fHvNERm-txrx-15" value="UC04&lt;br&gt;Manter Carros" style="ellipse;whiteSpace=wrap;html=1;" vertex="1" parent="1">
          <mxGeometry x="530" y="70" width="120" height="80" as="geometry" />
        </mxCell>
        <mxCell id="5SgOgQz0fHvNERm-txrx-16" value="UC05&lt;br&gt;Registrar Locação" style="ellipse;whiteSpace=wrap;html=1;" vertex="1" parent="1">
          <mxGeometry x="530" y="180" width="120" height="80" as="geometry" />
        </mxCell>
        <mxCell id="5SgOgQz0fHvNERm-txrx-19" value="" style="endArrow=none;html=1;rounded=0;exitX=0.5;exitY=1;exitDx=0;exitDy=0;entryX=0.25;entryY=0.1;entryDx=0;entryDy=0;entryPerimeter=0;" edge="1" parent="1" source="5SgOgQz0fHvNERm-txrx-15" target="5SgOgQz0fHvNERm-txrx-2">
          <mxGeometry width="50" height="50" relative="1" as="geometry">
            <mxPoint x="670" y="149.5" as="sourcePoint" />
            <mxPoint x="765" y="149.5" as="targetPoint" />
          </mxGeometry>
        </mxCell>
        <mxCell id="5SgOgQz0fHvNERm-txrx-20" value="" style="endArrow=none;html=1;rounded=0;entryX=0;entryY=1;entryDx=0;entryDy=0;entryPerimeter=0;" edge="1" parent="1" target="5SgOgQz0fHvNERm-txrx-2">
          <mxGeometry width="50" height="50" relative="1" as="geometry">
            <mxPoint x="590" y="320" as="sourcePoint" />
            <mxPoint x="765" y="289.5" as="targetPoint" />
          </mxGeometry>
        </mxCell>
        <mxCell id="5SgOgQz0fHvNERm-txrx-21" value="UC06&lt;br&gt;Fornecer Carro" style="ellipse;whiteSpace=wrap;html=1;" vertex="1" parent="1">
          <mxGeometry x="530" y="290" width="120" height="80" as="geometry" />
        </mxCell>
        <mxCell id="5SgOgQz0fHvNERm-txrx-22" value="" style="endArrow=none;html=1;rounded=0;exitX=0.5;exitY=0.5;exitDx=0;exitDy=0;exitPerimeter=0;entryX=0.5;entryY=0.5;entryDx=0;entryDy=0;entryPerimeter=0;" edge="1" parent="1" target="5SgOgQz0fHvNERm-txrx-2">
          <mxGeometry width="50" height="50" relative="1" as="geometry">
            <mxPoint x="650" y="219.5" as="sourcePoint" />
            <mxPoint x="745" y="219.5" as="targetPoint" />
          </mxGeometry>
        </mxCell>
        <mxCell id="5SgOgQz0fHvNERm-txrx-27" value="UC07&lt;br&gt;Verificar Pendências" style="ellipse;whiteSpace=wrap;html=1;" vertex="1" parent="1">
          <mxGeometry x="200" y="410" width="120" height="80" as="geometry" />
        </mxCell>
        <mxCell id="5SgOgQz0fHvNERm-txrx-29" value="&amp;lt;&amp;lt;include&amp;gt;&amp;gt;" style="html=1;verticalAlign=bottom;labelBackgroundColor=none;endArrow=open;endFill=0;dashed=1;rounded=0;entryX=0.5;entryY=1;entryDx=0;entryDy=0;exitX=0.5;exitY=0;exitDx=0;exitDy=0;" edge="1" parent="1" source="5SgOgQz0fHvNERm-txrx-27" target="5SgOgQz0fHvNERm-txrx-5">
          <mxGeometry width="160" relative="1" as="geometry">
            <mxPoint x="310" y="440" as="sourcePoint" />
            <mxPoint x="470" y="429" as="targetPoint" />
          </mxGeometry>
        </mxCell>
        <mxCell id="5SgOgQz0fHvNERm-txrx-33" value="&amp;lt;&amp;lt;extend&amp;gt;&amp;gt;" style="html=1;verticalAlign=bottom;labelBackgroundColor=none;endArrow=open;endFill=0;dashed=1;rounded=0;exitX=1;exitY=0.5;exitDx=0;exitDy=0;entryX=0.5;entryY=1;entryDx=0;entryDy=0;" edge="1" parent="1" source="5SgOgQz0fHvNERm-txrx-27" target="5SgOgQz0fHvNERm-txrx-21">
          <mxGeometry width="160" relative="1" as="geometry">
            <mxPoint x="530" y="500" as="sourcePoint" />
            <mxPoint x="460" y="480" as="targetPoint" />
          </mxGeometry>
        </mxCell>
      </root>
    </mxGraphModel>
  </diagram>
</mxfile>
